# xmcd
#
# Track frame offsets:
#	150
#	19254
#	38184
#	54776
#	70766
#	87089
#	103593
#	116125
#	138528
#	161135
#	184239
#	205249
#
# Disc length: 3120 seconds
#
# Revision: 1
# Processed by: cddbd v1.5.2PL0 Copyright (c) Steve Scherf et al.
# Submitted via: audiograbber 1.83.01
#
DISCID=a50c2e0c
DTITLE=New Edition - Ballads
DYEAR=2013
DGENRE=Soul
TTITLE0=I`m leaving you again
TTITLE1=Lost in love
TTITLE2=Whispers in bed
TTITLE3=Tonight`s your night
TTITLE4=With you all the way
TTITLE5=(Hey there) lonely girl
TTITLE6=Since I don`t have you
TTITLE7=Can you stand the rain
TTITLE8=Superlady
TTITLE9=I`m coming home
TTITLE10=I`m still in love with you
TTITLE11=Home again
EXTD=
EXTT0=
EXTT1=
EXTT2=
EXTT3=
EXTT4=
EXTT5=
EXTT6=
EXTT7=
EXTT8=
EXTT9=
EXTT10=
EXTT11=
PLAYORDER=
